<?xml version="1.0" standalone="no"?>
<!DOCTYPE svg PUBLIC "-//W3C//DTD SVG 20010904//EN"
 "http://www.w3.org/TR/2001/REC-SVG-20010904/DTD/svg10.dtd">
<svg version="1.0" xmlns="http://www.w3.org/2000/svg"
 width="300.000000pt" height="150.000000pt" viewBox="0 0 300.000000 150.000000"
 preserveAspectRatio="xMidYMid meet">
<metadata>
Created by potrace 1.10, written by Peter Selinger 2001-2011
</metadata>
<g transform="translate(0.000000,150.000000) scale(0.100000,-0.100000)"
fill="#000000" stroke="none">
<path d="M1383 1415 c-61 -26 -82 -126 -37 -176 14 -15 17 -37 16 -121 l-1
-103 -206 -5 -207 -5 -29 -33 -29 -32 0 -375 c0 -399 3 -430 48 -454 14 -8
211 -11 626 -11 l604 0 31 26 31 26 0 400 0 400 -29 29 -29 29 -207 0 -206 0
2 94 c3 150 -8 152 -92 12 l-63 -104 -53 -4 -53 -3 0 108 c0 94 3 112 20 134
42 54 18 143 -47 169 -40 17 -49 17 -90 -1z m115 -32 c7 -10 17 -33 22 -52 8
-29 6 -41 -12 -71 -18 -29 -22 -53 -24 -150 l-3 -115 -50 -3 c-37 -2 -51 1
-52 10 0 7 0 56 1 109 1 85 -2 101 -26 147 -18 34 -24 57 -19 69 5 10 9 22 9
26 1 5 14 20 31 33 23 18 38 22 70 18 22 -2 46 -12 53 -21z m248 -294 c2 -40
8 -77 13 -82 5 -5 4 -22 -5 -42 -8 -19 -11 -40 -8 -48 10 -27 -17 -98 -53
-137 -34 -39 -101 -68 -123 -55 -14 9 -13 88 1 102 15 15 4 44 -14 37 -20 -7
-22 -167 -2 -184 11 -9 16 -7 24 8 6 11 24 22 41 25 42 9 117 81 130 126 5 20
10 57 10 84 l0 47 201 0 c129 0 198 3 194 10 -3 6 1 7 9 4 12 -5 7 -13 -21
-34 -42 -31 -64 -49 -359 -309 -115 -101 -211 -188 -212 -193 -2 -4 -41 25
-86 64 -46 40 -172 152 -282 249 -109 96 -212 183 -229 193 -27 17 -27 16 6
-15 43 -40 78 -71 174 -153 75 -64 129 -112 182 -162 18 -18 33 -30 33 -28 0
6 59 -54 62 -63 2 -4 0 -9 -4 -11 -4 -1 -18 -12 -30 -25 -13 -12 -41 -36 -63
-53 -254 -200 -279 -220 -338 -272 l-49 -43 -19 25 c-18 23 -19 44 -19 404 0
347 1 381 18 398 16 18 33 19 325 16 265 -2 310 0 323 13 9 8 21 15 29 15 7 0
27 24 43 53 30 51 83 117 91 111 2 -1 5 -35 7 -75z m463 -160 c7 -21 11 -153
11 -381 0 -288 -3 -354 -15 -378 -20 -38 -33 -40 -64 -10 -14 14 -44 39 -66
57 -22 18 -69 56 -105 86 -36 29 -113 90 -172 136 -89 68 -106 85 -99 100 5 9
51 53 102 96 119 103 261 229 319 282 54 51 74 54 89 12z m-684 -502 c16 -15
34 -27 38 -27 5 0 34 23 65 50 31 28 62 48 69 46 6 -3 99 -74 205 -159 106
-84 205 -161 221 -171 15 -10 27 -21 27 -25 0 -3 -265 -6 -589 -6 -324 0 -588
2 -586 4 2 2 107 86 232 186 l228 182 30 -27 c17 -15 43 -39 60 -53z"/>
<path d="M1413 1382 c-28 -4 -53 -38 -53 -70 0 -12 12 -34 26 -47 24 -23 25
-27 23 -137 -2 -112 -1 -113 22 -116 l24 -3 -3 114 c-2 110 -1 114 23 137 56
52 14 135 -62 122z m35 -41 c8 -4 12 -19 10 -32 -2 -18 -9 -24 -28 -24 -19 0
-26 6 -28 24 -3 20 11 41 28 41 3 0 11 -4 18 -9z"/>
<path d="M1696 1084 c-10 -21 -31 -58 -47 -82 -35 -52 -35 -52 -6 -49 19 2 22
-3 25 -41 4 -50 -25 -98 -64 -108 -17 -4 -24 -13 -24 -30 0 -13 4 -24 10 -24
25 0 78 35 100 68 22 31 25 49 28 136 2 56 2 116 0 135 l-3 34 -19 -39z"/>
<path d="M1573 953 c-7 -14 -10 -30 -7 -34 7 -12 41 -11 49 1 3 6 2 10 -4 10
-5 0 -13 11 -18 25 l-8 24 -12 -26z"/>
<path d="M940 928 c-2 -153 0 -752 2 -754 2 -1 102 76 223 172 120 96 223 174
228 174 17 0 1 18 -84 91 -104 90 -257 226 -321 286 -27 25 -48 39 -48 31z
m35 -58 c-3 -5 0 -10 7 -10 18 -1 58 -35 58 -51 0 -7 2 -10 5 -7 3 3 19 -6 35
-21 16 -14 42 -37 58 -51 16 -14 64 -56 107 -95 43 -38 81 -72 85 -75 3 -3 9
-13 13 -22 7 -19 -24 -43 -39 -30 -5 4 -2 -2 6 -12 8 -11 10 -17 4 -13 -5 3
-23 -3 -40 -14 -16 -10 -25 -19 -19 -19 5 0 -8 -12 -30 -27 -22 -14 -48 -34
-58 -45 -10 -10 -25 -18 -34 -18 -9 0 -13 -3 -10 -6 7 -7 -36 -44 -51 -44 -5
0 -17 -11 -27 -24 -10 -13 -24 -22 -32 -19 -9 4 -11 0 -7 -11 5 -12 2 -15 -12
-9 -12 4 -15 3 -10 -5 4 -7 1 -12 -8 -12 -13 0 -15 42 -14 317 0 298 1 333 14
333 3 0 2 -4 -1 -10z"/>
<path d="M2095 858 c-44 -39 -98 -87 -120 -107 -22 -20 -76 -67 -120 -106 -44
-38 -91 -80 -105 -93 l-25 -23 30 -22 c31 -22 321 -253 387 -307 20 -16 39
-30 42 -30 3 0 6 171 6 380 0 209 -3 380 -7 379 -5 0 -44 -32 -88 -71z m71
-318 c-2 -166 -7 -304 -10 -307 -3 -4 -6 -1 -6 6 0 7 -4 10 -10 6 -9 -6 -32
10 -76 53 -13 12 -27 23 -31 23 -12 1 -39 18 -30 19 5 0 -22 23 -60 52 -37 29
-74 58 -81 65 -7 7 -20 13 -28 13 -8 0 -13 3 -13 8 3 19 -2 32 -12 30 -17 -4
-37 33 -21 39 6 3 10 9 6 14 -3 5 0 8 8 7 7 -2 12 3 10 10 -1 6 2 11 6 10 8
-3 85 61 162 132 153 142 171 155 183 134 4 -8 6 -149 3 -314z"/>
<path d="M855 1354 l-60 -13 55 7 c30 4 118 7 195 6 95 0 124 2 90 7 -78 11
-214 8 -280 -7z"/>
<path d="M704 1316 c-133 -49 -285 -152 -369 -249 -92 -107 -173 -256 -189
-352 -3 -16 1 -9 10 18 8 26 19 47 24 47 5 0 7 7 4 15 -4 8 -1 15 5 15 6 0 11
7 11 15 0 58 127 231 232 315 37 30 78 63 90 73 30 25 161 86 220 104 27 7 48
16 48 18 0 9 -26 4 -86 -19z"/>
<path d="M2535 1184 c-45 -10 -49 -12 -15 -7 25 3 80 7 124 9 43 2 81 6 84 9
11 10 -134 3 -193 -11z"/>
<path d="M2769 1177 c18 -6 49 -25 67 -42 19 -18 34 -30 34 -27 0 3 12 -17 27
-44 26 -46 28 -56 28 -178 0 -71 3 -118 6 -105 12 43 9 195 -5 242 -7 25 -24
60 -36 77 -28 39 -106 90 -134 89 -14 -1 -10 -4 13 -12z"/>
<path d="M1832 1174 c10 -9 121 -33 153 -33 17 0 -10 9 -60 20 -102 21 -100
21 -93 13z"/>
<path d="M2084 1126 c58 -9 165 -10 154 -1 -2 1 -52 4 -113 7 -107 5 -108 5
-41 -6z"/>
<path d="M2893 688 c-12 -35 -20 -64 -18 -66 5 -5 46 109 43 119 -2 5 -13 -19
-25 -53z"/>
<path d="M124 624 c-8 -69 0 -215 16 -267 19 -63 22 -35 4 34 -13 49 -15 90
-11 177 3 61 4 112 2 112 -2 0 -7 -25 -11 -56z"/>
<path d="M2850 597 c0 -45 -160 -231 -261 -303 -63 -45 -187 -102 -266 -121
-36 -9 -61 -19 -55 -21 20 -6 151 37 226 74 145 73 289 213 360 352 9 18 12
32 6 32 -5 0 -10 -6 -10 -13z"/>
<path d="M160 305 c0 -23 61 -114 106 -158 46 -46 149 -107 176 -107 7 1 -15
14 -49 30 -60 29 -193 148 -193 174 0 6 -9 25 -20 41 -11 17 -20 26 -20 20z"/>
<path d="M538 23 c23 -2 59 -2 80 0 20 2 1 4 -43 4 -44 0 -61 -2 -37 -4z"/>
</g>
</svg>
